<svg width="555" height="138" viewBox="0 0 555 138" fill="none" xmlns="http://www.w3.org/2000/svg">
<g clip-path="url(#clip0_2_2)">
<path d="M48.6 35.32C56.28 35.32 62.44 37.88 67.08 43C71.72 48.04 74.04 55 74.04 63.88V103H53.64V66.64C53.64 62.16 52.48 58.68 50.16 56.2C47.84 53.72 44.72 52.48 40.8 52.48C36.88 52.48 33.76 53.72 31.44 56.2C29.12 58.68 27.96 62.16 27.96 66.64V103H7.44V14.2H27.96V45.04C30.04 42.08 32.88 39.72 36.48 37.96C40.08 36.2 44.12 35.32 48.6 35.32ZM84.2194 69.4C84.2194 62.52 85.4994 56.48 88.0594 51.28C90.6994 46.08 94.2594 42.08 98.7394 39.28C103.219 36.48 108.219 35.08 113.739 35.08C118.459 35.08 122.579 36.04 126.099 37.96C129.699 39.88 132.459 42.4 134.379 45.52V36.04H154.899V103H134.379V93.52C132.379 96.64 129.579 99.16 125.979 101.08C122.459 103 118.339 103.96 113.619 103.96C108.179 103.96 103.219 102.56 98.7394 99.76C94.2594 96.88 90.6994 92.84 88.0594 87.64C85.4994 82.36 84.2194 76.28 84.2194 69.4ZM134.379 69.52C134.379 64.4 132.939 60.36 130.059 57.4C127.259 54.44 123.819 52.96 119.739 52.96C115.659 52.96 112.179 54.44 109.299 57.4C106.499 60.28 105.099 64.28 105.099 69.4C105.099 74.52 106.499 78.6 109.299 81.64C112.179 84.6 115.659 86.08 119.739 86.08C123.819 86.08 127.259 84.6 130.059 81.64C132.939 78.68 134.379 74.64 134.379 69.52ZM190.265 45.52C192.265 42.4 195.025 39.88 198.545 37.96C202.065 36.04 206.185 35.08 210.905 35.08C216.425 35.08 221.425 36.48 225.905 39.28C230.385 42.08 233.905 46.08 236.465 51.28C239.105 56.48 240.425 62.52 240.425 69.4C240.425 76.28 239.105 82.36 236.465 87.64C233.905 92.84 230.385 96.88 225.905 99.76C221.425 102.56 216.425 103.96 210.905 103.96C206.265 103.96 202.145 103 198.545 101.08C195.025 99.16 192.265 96.68 190.265 93.64V134.92H169.745V36.04H190.265V45.52ZM219.545 69.4C219.545 64.28 218.105 60.28 215.225 57.4C212.425 54.44 208.945 52.96 204.785 52.96C200.705 52.96 197.225 54.44 194.345 57.4C191.545 60.36 190.145 64.4 190.145 69.52C190.145 74.64 191.545 78.68 194.345 81.64C197.225 84.6 200.705 86.08 204.785 86.08C208.865 86.08 212.345 84.6 215.225 81.64C218.105 78.6 219.545 74.52 219.545 69.4ZM271.71 45.52C273.71 42.4 276.47 39.88 279.99 37.96C283.51 36.04 287.63 35.08 292.35 35.08C297.87 35.08 302.87 36.48 307.35 39.28C311.83 42.08 315.35 46.08 317.91 51.28C320.55 56.48 321.87 62.52 321.87 69.4C321.87 76.28 320.55 82.36 317.91 87.64C315.35 92.84 311.83 96.88 307.35 99.76C302.87 102.56 297.87 103.96 292.35 103.96C287.71 103.96 283.59 103 279.99 101.08C276.47 99.16 273.71 96.68 271.71 93.64V134.92H251.19V36.04H271.71V45.52ZM300.99 69.4C300.99 64.28 299.55 60.28 296.67 57.4C293.87 54.44 290.39 52.96 286.23 52.96C282.15 52.96 278.67 54.44 275.79 57.4C272.99 60.36 271.59 64.4 271.59 69.52C271.59 74.64 272.99 78.68 275.79 81.64C278.67 84.6 282.15 86.08 286.23 86.08C290.31 86.08 293.79 84.6 296.67 81.64C299.55 78.6 300.99 74.52 300.99 69.4ZM373.435 35.32C381.275 35.32 387.515 37.88 392.155 43C396.875 48.04 399.235 55 399.235 63.88V103H378.835V66.64C378.835 62.16 377.675 58.68 375.355 56.2C373.035 53.72 369.915 52.48 365.995 52.48C362.075 52.48 358.955 53.72 356.635 56.2C354.315 58.68 353.155 62.16 353.155 66.64V103H332.635V36.04H353.155V44.92C355.235 41.96 358.035 39.64 361.555 37.96C365.075 36.2 369.035 35.32 373.435 35.32ZM476.615 68.44C476.615 70.36 476.495 72.36 476.255 74.44H429.815C430.135 78.6 431.455 81.8 433.775 84.04C436.175 86.2 439.095 87.28 442.535 87.28C447.655 87.28 451.215 85.12 453.215 80.8H475.055C473.935 85.2 471.895 89.16 468.935 92.68C466.055 96.2 462.415 98.96 458.015 100.96C453.615 102.96 448.695 103.96 443.255 103.96C436.695 103.96 430.855 102.56 425.735 99.76C420.615 96.96 416.615 92.96 413.735 87.76C410.855 82.56 409.415 76.48 409.415 69.52C409.415 62.56 410.815 56.48 413.615 51.28C416.495 46.08 420.495 42.08 425.615 39.28C430.735 36.48 436.615 35.08 443.255 35.08C449.735 35.08 455.495 36.44 460.535 39.16C465.575 41.88 469.495 45.76 472.295 50.8C475.175 55.84 476.615 61.72 476.615 68.44ZM455.615 63.04C455.615 59.52 454.415 56.72 452.015 54.64C449.615 52.56 446.615 51.52 443.015 51.52C439.575 51.52 436.655 52.52 434.255 54.52C431.935 56.52 430.495 59.36 429.935 63.04H455.615ZM527.04 103L514.2 84.4L503.4 103H481.2L503.28 68.8L480.6 36.04H503.64L516.48 54.52L527.28 36.04H549.48L527.04 69.76L550.08 103H527.04Z" fill="#003F52"/>
<path d="M142 69C155.333 82.3333 168.667 82.3333 182 69" stroke="#F37731" stroke-width="5" stroke-linecap="round"/>
</g>
<defs>
<clipPath id="clip0_2_2">
<rect width="555" height="138" fill="white"/>
</clipPath>
</defs>
</svg>
